# AST/ASF file generated using VICON BodyLanguage
# -----------------------------------------------
:version 1.10
:name VICON
:units
  mass 1.0
  length 0.45
  angle deg
:documentation
   .ast/.asf automatically generated from VICON data using
   VICON BodyBuilder and BodyLanguage model FoxedUp or BRILLIANT.MOD
:root
   order TX TY TZ RX RY RZ
   axis XYZ
   position 0 0 0  
   orientation 0 0 0 
:bonedata
  begin
     id 1 
     name lhipjoint
     direction 0.682418 -0.694059 0.22932 
     length 2.25561 
     axis 0 0 0  XYZ
  end
  begin
     id 2 
     name lfemur
     direction 0.34202 -0.939693 0  
     length 6.96448  
     axis 0 0 20  XYZ
    dof rx ry rz
    limits (-160.0 20.0)
           (-70.0 70.0)
           (-60.0 70.0)
  end
  begin
     id 3 
     name ltibia
     direction 0.34202 -0.939693 0   
     length 6.88553   
     axis 0 0 20   XYZ
    dof rx
    limits (-10.0 170.0)
  end
  begin
     id 4 
     name lfoot
     direction 0.0723587 -0.198804 0.977364   
     length 1.88518   
     axis -90 7.62852e-016 20   XYZ
    dof rx rz
    limits (-45.0 90.0)
           (-70.0 20.0)
  end
  begin
     id 5 
     name ltoes
     direction 1.53558e-011 -4.21962e-011 1   
     length 0.952124   
     axis -90 7.62852e-016 20   XYZ
    dof rx
    limits (-90.0 20.0)
  end
  begin
     id 6 
     name rhipjoint
     direction -0.657603 -0.71533 0.236348   
     length 2.18854  
     axis 0 0 0  XYZ 
  end
  begin
     id 7 
     name rfemur
     direction -0.34202 -0.939693 0   
     length 6.86686   
     axis 0 0 -20   XYZ
    dof rx ry rz
    limits (-160.0 20.0)
           (-70.0 70.0)
           (-70.0 60.0)
  end
  begin
     id 8 
     name rtibia
     direction -0.34202 -0.939693 0   
     length 6.59503   
     axis 0 0 -20   XYZ
    dof rx
    limits (-10.0 170.0)
 end
 begin
     id 9 
     name rfoot
     direction -0.101977 -0.280179 0.954516   
     length 1.93723  
     axis -90 -7.62852e-016 -20   XYZ
    dof rx rz
    limits (-45.0 90.0)
           (-20.0 70.0)
  end
  begin
     id 10 
     name rtoes
     direction -1.53564e-011 -4.21897e-011 1   
     length 0.970315   
     axis -90 -7.62852e-016 -20   XYZ
    dof rx
    limits (-90.0 20.0)
  end
  begin
     id 11 
     name lowerback
     direction -0.0339559 0.999421 -0.00235966   
     length 1.88543   
     axis 0 0 0   XYZ
    dof rx ry rz
    limits (-20.0 45.0)
           (-30.0 30.0)
           (-30.0 30.0)
  end
  begin
     id 12 
     name upperback
     direction 0.00401003 0.999739 0.0224689   
     length 1.8856   
     axis 0 0 0   XYZ
    dof rx ry rz
    limits (-20.0 45.0)
           (-30.0 30.0)
           (-30.0 30.0)
  end
  begin
     id 13 
     name thorax
     direction 0.0198619 0.999546 0.0226536   
     length 1.88352   
     axis 0 0 0   XYZ
    dof rx ry rz
    limits (-20.0 45.0)
           (-30.0 30.0)
           (-30.0 30.0)
  end
  begin
     id 14 
     name lowerneck
     direction -0.0461848 0.998632 0.0245198   
     length 1.34895   
     axis 0 0 0   XYZ
    dof rx ry rz
    limits (-20.0 45.0)
           (-30.0 30.0)
           (-30.0 30.0)
  end
  begin
     id 15 
     name upperneck
     direction -0.0180627 0.994724 -0.100984   
     length 1.35214   
     axis 0 0 0   XYZ
    dof rx ry rz
    limits (-20.0 45.0)
           (-30.0 30.0)
           (-30.0 30.0)
  end
  begin
     id 16
     name head
     direction -0.00374772 0.999293 -0.037403  
     length 1.3568  
     axis 0 0 0   XYZ
    dof rx ry rz
    limits (-20.0 45.0)
           (-30.0 30.0)
           (-30.0 30.0)
  end
  begin
     id 17 
     name lclavicle
     direction 0.971773 0.191119 0.138311  
     length 2.84954  
     axis 0 0 0   XYZ
    dof ry rz
    limits (-20.0 10.0)
           (0.0 20.0)
  end
  begin
     id 18 
     name lhumerus
     direction 1 -4.4897e-011 -2.43761e-027   
     length 4.40919   
     axis 180 -30 -90   XYZ
    dof rx ry rz
    limits (-60.0 90.0)
           (-90.0 90.0)
           (-90.0 90.0)
  end
  begin
     id 19
     name lradius
     direction 1 -4.4896e-011 -9.1621e-027   
     length 3.03857   
     axis 180 -30 -90   XYZ
    dof rx
    limits (-10.0 170.0)
  end
  begin
     id 20
     name lwrist
     direction 1 -4.4896e-011 -1.41363e-026   
     length 1.51928   
     axis 1.07133e-014 90 90   XYZ
    dof ry
    limits (-180.0 0.0)
 end
  begin
     id 21 
     name lhand
     direction 1 -4.48978e-011 -2.82725e-026   
     length 0.523208   
     axis 1.80403e-014 90 90   XYZ
    dof rx rz
    limits (-90.0 90.0)
           (-45.0 45.0)
  end
  begin
     id 22 
     name lfingers
     direction 1 -4.48977e-011 -5.6545e-026   
     length 0.421824   
     axis 3.60806e-014 90 90   XYZ
    dof rx
    limits (0.0 90.0)
  end
  begin
     id 23
     name lthumb
     direction 0.707107 -6.34962e-011 0.707107   
     length 0.605657   
     axis -90 45 2.85299e-015   XYZ
    dof rx rz
    limits (-45.0 45.0)
           (-45.0 45.0)
  end
  begin
     id 24 
     name rclavicle
     direction -0.957247 0.24311 0.156766   
     length 3.12406  
     axis 0 0 0   XYZ 
    dof ry rz
    limits (-10.0 20.0)
           (-20.0 0.0)
  end
  begin
     id 25 
     name rhumerus
     direction -1 -4.48964e-011 -1.70632e-027  
     length 4.61969   
     axis 180 30 90   XYZ
    dof rx ry rz
    limits (-90.0 60.0)
           (-90.0 90.0)
           (-90.0 90.0)
  end
  begin
     id 26 
     name rradius
     direction -1 -4.48966e-011 -6.60395e-027   
     length 3.09382   
     axis 180 30 90   XYZ
    dof rx
    limits (-10.0 170.0)
  end
  begin
     id 27 
     name rwrist
     direction -1 -4.48963e-011 -1.41363e-026   
     length 1.54691   
     axis 1.07133e-014 -90 -90   XYZ
    dof ry
    limits (-180.0 0.0)
  end
  begin
     id 28
     name rhand
     direction -1 -4.49013e-011 -2.82725e-026   
     length 0.500896   
     axis 1.80403e-014 -90 -90   XYZ
    dof rx rz
    limits (-90.0 90.0)
           (-45.0 45.0)
  end
  begin
     id 29
     name rfingers
     direction -1 -4.48902e-011 -5.6545e-026   
     length 0.403835   
     axis 3.60806e-014 -90 -90   XYZ
    dof rx
    limits (0.0 90.0)
  end
  begin
     id 30
     name rthumb
     direction -0.707107 -6.34953e-011 0.707107   
     length 0.579829   
     axis -90 -45 -2.85299e-015   XYZ
    dof rx rz
    limits (-45.0 45.0)
           (-45.0 45.0)
  end
:hierarchy
  begin
    root lhipjoint rhipjoint lowerback
    lhipjoint lfemur
    lfemur ltibia
    ltibia lfoot
    lfoot ltoes
    rhipjoint rfemur
    rfemur rtibia
    rtibia rfoot
    rfoot rtoes
    lowerback upperback
    upperback thorax
    thorax lowerneck lclavicle rclavicle
    lowerneck upperneck
    upperneck head
    lclavicle lhumerus
    lhumerus lradius
    lradius lwrist
    lwrist lhand lthumb
    lhand lfingers
    rclavicle rhumerus
    rhumerus rradius
    rradius rwrist
    rwrist rhand rthumb
    rhand rfingers
  end

#!OML:ASF E:\madness\Project 1\Capture day 1\Session 1\Female1.ASF
:FULLY-SPECIFIED
:DEGREES
569
root 20.7745 14.4642 -1.59861 199.71 -68.2496 -165.579
lowerback 41.9477 2.77128 -7.50812
upperback 11.2926 -2.20605 -4.04821
thorax -7.23317 -1.73072 0.498328
lowerneck -5.30887 6.45837 0.950973
upperneck -4.74382 8.54751 -2.01416
head -0.455812 4.26592 -0.659556
rclavicle 9.70069e-014 5.04913e-014
rhumerus -61.8919 1.42958 -61.3421
rradius 77.1616
rwrist -19.8667
rhand -13.4929 -33.897
rfingers 7.12502
rthumb 12.618 -63.4959
lclavicle 9.70069e-014 5.04913e-014
lhumerus -13.7433 15.4808 64.5874
lradius 43.5255
lwrist -2.04347
lhand -34.9039 -15.6166
lfingers 7.12502
lthumb -8.05207 14.21
rfemur -61.0237 -0.55259 28.4235
rtibia 61.3061
rfoot -30.7684 -14.2191
rtoes 2.06726
lfemur -75.8877 -6.80066 12.6631
ltibia 51.2527
lfoot 2.41408 23.9265
ltoes -8.08238
570
root 20.8081 14.4563 -1.58655 199.703 -67.6784 -166.17
lowerback 42.1959 3.10771 -7.83424
upperback 11.3217 -1.94824 -3.69304
thorax -7.25019 -1.63898 0.936088
lowerneck -6.47918 6.24263 0.166079
upperneck -2.96455 8.32449 -1.31152
head 0.207841 4.15776 -0.251911
rclavicle 5.88403e-014 6.87795e-014
rhumerus -61.3071 1.5626 -58.8301
rradius 76.423
rwrist -20.7478
rhand -13.1757 -34.6307
rfingers 7.12502
rthumb 12.9239 -64.2104
lclavicle 5.88403e-014 6.87795e-014
lhumerus -16.9078 13.6954 62.3491
lradius 44.1436
lwrist 0.0573504
lhand -35.5665 -15.8043
lfingers 7.12502
lthumb -8.69149 13.9968
rfemur -60.6653 -0.121335 27.9624
rtibia 61.3544
rfoot -30.2573 -14.212
rtoes 2.24732
lfemur -75.2786 -7.0107 12.5182
ltibia 51.3042
lfoot 2.50489 24.3326
ltoes -8.47099
571
root 20.8384 14.4548 -1.57133 199.074 -67.257 -166.242
lowerback 42.624 3.42127 -7.38324
upperback 11.455 -1.47864 -3.61353
thorax -7.26245 -1.44558 0.603493
lowerneck -7.76869 5.61409 -0.168449
upperneck -0.877551 7.48621 0.383618
head 0.991944 3.7461 0.378112
rclavicle -7.95139e-015 3.97569e-015
rhumerus -61.2946 0.41575 -56.342
rradius 76.1344
rwrist -21.4487
rhand -14.0904 -34.0102
rfingers 7.12502
rthumb 12.042 -63.6438
lclavicle -7.95139e-015 3.97569e-015
lhumerus -19.2871 15.6713 62.3496
lradius 44.5632
lwrist -3.19227
lhand -36.7354 -17.1014
lfingers 7.12502
lthumb -9.81934 12.6496
rfemur -60.0561 0.148528 27.7809
rtibia 61.3104
rfoot -29.8507 -14.0828
rtoes 3.03499
lfemur -74.6014 -7.35354 12.5956
ltibia 51.3814
lfoot 2.45584 24.748
ltoes -8.6075
572
root 20.8657 14.4624 -1.55354 198.464 -66.8455 -166.383
lowerback 43.0794 3.60697 -7.35304
upperback 11.4798 -1.29783 -3.34692
thorax -7.36339 -1.38367 0.798197
lowerneck -7.45649 5.46694 0.222723
upperneck -1.0432 7.27015 -0.233991
head 0.925474 3.629 0.107616
rclavicle -1.43125e-014 2.78299e-015
rhumerus -60.872 0.0695624 -53.8228
rradius 75.9424
rwrist -22.1455
rhand -14.5648 -34.3453
rfingers 7.12502
rthumb 11.5844 -64.0051
lclavicle -1.43125e-014 2.78299e-015
lhumerus -22.7783 15.8061 60.8717
lradius 45.8319
lwrist -3.30917
lhand -37.8099 -18.2357
lfingers 7.12502
lthumb -10.8559 11.4637
rfemur -59.3366 0.299224 27.6227
rtibia 61.2015
rfoot -29.7544 -13.9294
rtoes 4.33214
lfemur -73.8745 -7.76109 12.6372
ltibia 51.4555
lfoot 2.34192 25.1487
ltoes -8.14875
573
root 20.8941 14.466 -1.53216 197.72 -66.278 -166.353
lowerback 43.5251 3.83086 -7.19153
upperback 11.5729 -1.03358 -3.1117
thorax -7.39403 -1.2914 0.858008
lowerneck -7.49293 5.21772 0.433789
upperneck -1.04245 6.92137 -0.471996
head 0.948544 3.44955 -0.00784686
rclavicle 9.54166e-015 -2.3059e-014
rhumerus -60.2531 -0.679399 -51.1902
rradius 75.88
rwrist -22.9456
rhand -15.464 -34.5794
rfingers 7.12502
rthumb 10.7172 -64.286
lclavicle 9.54166e-015 -2.3059e-014
lhumerus -25.9634 15.9794 59.6122
lradius 47.1657
lwrist -3.80867
lhand -38.2993 -19.0277
lfingers 7.12502
lthumb -11.3279 10.6464
rfemur -58.6394 0.554282 27.513
rtibia 61.0512
rfoot -29.635 -13.567
rtoes 5.75817
lfemur -73.0778 -7.89777 12.5388
ltibia 51.5239
lfoot 2.3553 25.41
ltoes -7.80614
